<svg width="142" height="50" viewBox="0 0 142 50" version="1.1" xmlns="http://www.w3.org/2000/svg" xmlns:xlink="http://www.w3.org/1999/xlink" xml:space="preserve" xmlns:serif="http://www.serif.com/" style="fill-rule:evenodd;clip-rule:evenodd;stroke-linejoin:round;stroke-miterlimit:2;">
  <g transform="matrix(0.236667,0,0,0.236667,0,0)">
    <path d="M241.293,169.022C244.551,169.022 247.161,170.187 249.123,172.514C251.085,174.842 252.066,178.317 252.066,182.938C252.066,187.493 251.068,190.96 249.073,193.337C247.078,195.714 244.467,196.903 241.242,196.903C239.213,196.903 237.552,196.529 236.255,195.78C234.959,195.032 233.927,194.143 233.163,193.112L232.814,193.112C232.88,193.711 232.954,194.417 233.038,195.232C233.121,196.047 233.163,196.769 233.163,197.402L233.163,208.374L227.876,208.374L227.876,169.521L232.165,169.521L232.914,173.112L233.163,173.112C233.927,171.981 234.95,171.018 236.23,170.219C237.509,169.421 239.197,169.022 241.293,169.022ZM240.046,173.361C237.552,173.361 235.789,174.077 234.759,175.506C233.727,176.936 233.195,179.13 233.162,182.09L233.162,182.887C233.162,186.014 233.661,188.407 234.659,190.07C235.656,191.732 237.485,192.564 240.145,192.564C242.339,192.564 243.968,191.666 245.032,189.871C246.096,188.075 246.627,185.731 246.627,182.839C246.627,179.913 246.086,177.602 245.006,175.906C243.928,174.209 242.273,173.361 240.046,173.361ZM268.724,169.022C272.082,169.022 274.601,169.762 276.279,171.242C277.958,172.723 278.798,175.042 278.798,178.2L278.798,196.405L275.058,196.405L274.011,192.665L273.811,192.665C272.646,194.128 271.425,195.2 270.145,195.881C268.864,196.563 267.094,196.904 264.833,196.904C262.406,196.904 260.394,196.247 258.799,194.933C257.202,193.621 256.405,191.566 256.405,188.773C256.405,186.014 257.443,183.927 259.521,182.514C261.599,181.102 264.766,180.329 269.023,180.195L273.611,180.046L273.611,178.549C273.611,176.588 273.163,175.2 272.264,174.385C271.365,173.57 270.103,173.162 268.473,173.162C267.11,173.162 265.796,173.362 264.533,173.761C263.286,174.154 262.069,174.637 260.892,175.207L259.197,171.367C260.46,170.703 261.914,170.145 263.56,169.696C265.244,169.242 266.98,169.015 268.724,169.022ZM273.562,183.486L269.971,183.586C266.911,183.72 264.792,184.234 263.612,185.132C262.431,186.03 261.841,187.261 261.841,188.823C261.841,190.219 262.257,191.233 263.088,191.865C263.919,192.497 265.001,192.812 266.331,192.812C268.391,192.812 270.113,192.231 271.493,191.066C272.872,189.903 273.563,188.157 273.563,185.83L273.563,183.486L273.562,183.486ZM299.696,169.022C300.76,169.022 301.741,169.105 302.639,169.272L302.09,174.209C301.211,173.975 300.306,173.858 299.397,173.86C298.068,173.851 296.759,174.195 295.607,174.858C294.442,175.524 293.504,176.479 292.789,177.726C292.074,178.973 291.717,180.477 291.717,182.24L291.717,196.405L286.43,196.405L286.43,169.522L290.62,169.522L291.317,174.31L291.517,174.31C292.348,172.881 293.462,171.642 294.859,170.595C296.255,169.546 297.867,169.022 299.696,169.022ZM319.592,192.613C321.088,192.613 322.434,192.397 323.632,191.965L323.632,195.956C323.066,196.223 322.302,196.446 321.337,196.629C320.373,196.811 319.409,196.903 318.444,196.903C316.981,196.903 315.643,196.653 314.429,196.155C313.215,195.656 312.242,194.792 311.511,193.562C310.78,192.332 310.415,190.619 310.415,188.424L310.415,173.561L306.675,173.561L306.675,171.167L310.615,169.172L312.461,163.486L315.702,163.486L315.702,169.52L323.382,169.52L323.382,173.56L315.702,173.56L315.702,188.323C315.702,189.786 316.059,190.866 316.774,191.564C317.489,192.264 318.428,192.613 319.592,192.613ZM364.679,182.938C364.679,187.393 363.532,190.836 361.238,193.262C358.944,195.688 355.852,196.903 351.961,196.903C349.533,196.903 347.381,196.362 345.502,195.282C343.624,194.202 342.143,192.622 341.063,190.544C339.983,188.466 339.442,185.931 339.442,182.938C339.442,178.483 340.573,175.049 342.834,172.639C345.095,170.229 348.186,169.022 352.111,169.022C354.571,169.022 356.741,169.563 358.619,170.643C360.497,171.724 361.977,173.296 363.058,175.357C364.138,177.419 364.679,179.945 364.679,182.938ZM344.879,182.938C344.879,185.963 345.453,188.324 346.6,190.02C347.747,191.717 349.567,192.564 352.061,192.564C354.555,192.564 356.375,191.716 357.522,190.02C358.669,188.325 359.244,185.964 359.244,182.938C359.244,179.878 358.669,177.526 357.522,175.88C356.375,174.234 354.538,173.412 352.012,173.412C349.517,173.412 347.706,174.234 346.575,175.88C345.443,177.526 344.879,179.878 344.879,182.938ZM383.981,173.561L377.348,173.561L377.348,196.404L372.061,196.404L372.061,173.561L367.522,173.561L367.522,171.067L372.061,169.421L372.061,167.726C372.061,164.301 372.851,161.866 374.43,160.419C376.009,158.973 378.212,158.249 381.038,158.249C382.201,158.249 383.266,158.349 384.23,158.548C385.194,158.748 386.009,158.964 386.674,159.196L385.327,163.236C384.701,163.056 384.069,162.898 383.432,162.762C382.727,162.612 382.008,162.537 381.287,162.538C378.659,162.538 377.347,164.283 377.347,167.774L377.347,169.52L383.98,169.52L383.98,173.561L383.981,173.561ZM429.96,160.8L429.96,183.838C429.96,186.468 429.371,188.775 428.194,190.754C427.017,192.736 425.316,194.253 423.092,195.308C420.867,196.364 418.237,196.892 415.202,196.892C410.623,196.892 407.068,195.718 404.535,193.373C402.002,191.027 400.735,187.816 400.735,183.741L400.735,160.8L408.26,160.8L408.26,182.596C408.26,185.34 408.812,187.353 409.916,188.636C411.02,189.919 412.847,190.56 415.396,190.56C417.864,190.56 419.653,189.914 420.766,188.625C421.878,187.334 422.435,185.309 422.435,182.549L422.435,160.8L429.96,160.8ZM459.182,196.404L451.754,196.404L451.754,180.501C451.754,178.537 451.426,177.064 450.769,176.081C450.111,175.099 449.076,174.608 447.664,174.608C445.764,174.608 444.383,175.307 443.523,176.702C442.663,178.098 442.232,180.396 442.232,183.594L442.232,196.403L434.805,196.403L434.805,169.176L440.478,169.176L441.477,172.659L441.891,172.659C442.621,171.408 443.676,170.431 445.057,169.723C446.436,169.017 448.019,168.664 449.806,168.664C453.881,168.664 456.641,169.995 458.087,172.658L458.744,172.658C459.475,171.391 460.55,170.409 461.972,169.711C463.392,169.012 464.995,168.664 466.781,168.664C469.866,168.664 472.2,169.455 473.783,171.039C475.366,172.622 476.157,175.158 476.157,178.649L476.157,196.403L468.705,196.403L468.705,180.5C468.705,178.536 468.377,177.063 467.718,176.08C467.061,175.098 466.025,174.607 464.613,174.607C462.795,174.607 461.436,175.256 460.534,176.555C459.633,177.854 459.182,179.916 459.182,182.741L459.182,196.404ZM506.628,182.742C506.628,187.173 505.46,190.641 503.121,193.141C500.784,195.641 497.529,196.892 493.356,196.892C490.741,196.892 488.436,196.32 486.44,195.174C484.443,194.029 482.908,192.386 481.837,190.244C480.766,188.1 480.23,185.6 480.23,182.743C480.23,178.294 481.39,174.836 483.711,172.368C486.033,169.901 489.297,168.667 493.501,168.667C496.115,168.667 498.421,169.235 500.417,170.371C502.414,171.508 503.949,173.14 505.02,175.266C506.092,177.392 506.628,179.885 506.628,182.742ZM487.803,182.742C487.803,185.436 488.245,187.474 489.131,188.855C490.015,190.234 491.457,190.924 493.454,190.924C495.435,190.924 496.858,190.239 497.728,188.866C498.597,187.494 499.032,185.453 499.032,182.742C499.032,180.048 498.594,178.025 497.717,176.677C496.84,175.33 495.403,174.656 493.406,174.656C491.425,174.656 489.997,175.327 489.12,176.666C488.241,178.005 487.803,180.031 487.803,182.742ZM516.864,196.404L506.489,169.177L514.258,169.177L519.518,184.69C520.054,186.379 520.402,188.237 520.565,190.267L520.76,190.267C520.857,188.433 521.222,186.573 521.856,184.69L527.092,169.177L534.86,169.177L524.486,196.404L516.864,196.404ZM537.942,162.139C537.942,159.72 539.29,158.511 541.984,158.511C544.678,158.511 546.026,159.72 546.026,162.139C546.026,163.292 545.689,164.189 545.015,164.831C544.342,165.471 543.331,165.792 541.983,165.792C539.29,165.792 537.942,164.574 537.942,162.139ZM545.686,196.404L538.259,196.404L538.259,169.177L545.686,169.177L545.686,196.404ZM564.451,190.973C565.75,190.973 567.308,190.689 569.126,190.12L569.126,195.648C567.275,196.477 565.002,196.891 562.307,196.891C559.336,196.891 557.172,196.139 555.817,194.637C554.462,193.136 553.784,190.883 553.784,187.88L553.784,174.752L550.228,174.752L550.228,171.612L554.32,169.127L556.462,163.379L561.212,163.379L561.212,169.176L568.834,169.176L568.834,174.752L561.212,174.752L561.212,187.88C561.212,188.935 561.508,189.714 562.1,190.217C562.693,190.722 563.477,190.973 564.451,190.973ZM571.629,169.177L579.763,169.177L584.902,184.495C585.34,185.826 585.64,187.402 585.803,189.22L585.95,189.22C586.114,187.61 586.466,186.024 586.997,184.495L592.037,169.177L600,169.177L588.482,199.886C587.426,202.727 585.92,204.854 583.965,206.267C582.008,207.679 579.723,208.385 577.109,208.385C575.826,208.385 574.567,208.247 573.333,207.971L573.333,202.078C574.226,202.289 575.2,202.394 576.256,202.394C577.571,202.394 578.719,201.992 579.702,201.189C580.684,200.386 581.452,199.172 582.004,197.548L582.442,196.209L571.629,169.177Z" style="fill-rule:nonzero;"></path>
  </g>
  <g transform="matrix(0.236667,0,0,0.236667,0,0)">
    <rect x="0" y="176.99" width="199.845" height="2.989" style="fill:rgb(145,201,159);fill-rule:nonzero;"></rect>
  </g>
  <g transform="matrix(0.236667,0,0,0.236667,0,0)">
    <path fill="#202020" d="M241.046,0L241.046,109.063C241.046,131.875 226.004,136.328 226.004,136.328L600,136.328L600,0L241.046,0Z" style="fill-rule:nonzero;"></path>
  </g>
  <g transform="matrix(0.236667,0,0,0.236667,0,0)">
    <path d="M307.043,72.25L320.469,72.25L320.469,89.099C316.963,90.981 312.003,92.09 306.361,92.09C291.907,92.09 283.012,81.314 283.012,67.802C283.012,54.551 291.907,43.516 306.103,43.516C313.027,43.516 318.93,46.168 322.524,50.101L328.422,43.945C323.46,39.155 315.599,36.077 306.015,36.077C287.631,36.077 273.779,48.905 273.779,67.801C273.779,86.444 287.204,99.702 306.103,99.702C314.996,99.702 322.524,97.821 328.85,94.399L328.85,65.068L307.043,65.068L307.043,72.25ZM506.681,75.245C506.681,83.541 502.917,92.089 491.627,92.089C480.342,92.089 476.579,83.541 476.579,75.245L476.579,37.618L468.113,37.618L468.113,75.756C468.113,88.154 475.638,99.702 491.627,99.702C507.62,99.702 515.148,88.154 515.148,75.756L515.148,37.618L506.682,37.618L506.682,75.245L506.681,75.245ZM351.869,64.128L351.869,44.8L362.214,44.8C369.572,44.8 375.815,47.107 375.815,54.379C375.815,61.648 369.572,64.128 361.613,64.128L351.869,64.128ZM369.653,70.368C378.296,68.915 384.369,63.273 384.369,54.379C384.369,42.063 374.531,37.618 362.813,37.618L343.4,37.618L343.4,98.163L351.869,98.163L351.869,71.228L360.936,71.228L376.327,98.163L386.585,98.163L369.653,70.368ZM546.884,64.386L537.904,64.386L537.904,44.8L547.06,44.8C555.014,44.8 561.001,47.197 561.001,54.463C561.001,61.648 555.18,64.386 546.884,64.386M547.91,37.618L529.437,37.618L529.437,98.163L537.903,98.163L537.903,71.567L547.484,71.567C560.061,71.567 569.546,66.608 569.546,54.463C569.547,42.661 561.001,37.618 547.91,37.618M424.829,92.089C410.969,92.089 401.99,81.313 401.99,67.802C401.99,54.551 410.888,43.516 424.829,43.516C438.936,43.516 447.83,54.551 447.83,67.802C447.831,81.314 438.848,92.089 424.829,92.089M424.829,36.077C406.437,36.077 392.847,48.905 392.847,67.802C392.847,86.445 406.437,99.703 424.829,99.703C443.294,99.703 456.985,86.445 456.985,67.802C456.985,48.905 443.294,36.077 424.829,36.077" style="fill:rgb(255,255,255);fill-rule:nonzero;"></path>
  </g>
  <g transform="matrix(0.236667,0,0,0.236667,0,0)">
    <path fill="#202020" d="M0,0L0,136.329L199.214,136.329C214.213,136.329 226.481,124.062 226.481,109.064L226.481,0L0,0Z" style="fill-rule:nonzero;"></path>
  </g>
  <g transform="matrix(0.236667,0,0,0.236667,0,0)">
    <path d="M84.595,46.678L103.241,46.685L103.241,98.24L109.732,98.24C112.064,98.24 113.924,96.326 113.924,93.996L114.123,46.685L130.647,46.685C132.663,46.685 134.003,45.471 134.003,43.176L134.014,37.189L84.594,37.183L84.594,46.678L84.595,46.678ZM186.962,40.144L171.411,84.29L170.169,84.29L154.615,40.144C153.897,37.924 152.154,37.201 148.974,37.201L141.735,37.201L165.908,98.329L175.67,98.329L199.844,37.201L192.604,37.201C189.43,37.201 187.68,37.924 186.962,40.144M52.912,63.883L45.313,63.883L45.313,46.347L53.256,46.347C59.992,46.347 66.466,47.643 66.466,54.895C66.466,62.157 59.992,63.883 52.912,63.883M54.382,37.198L34.429,37.198L34.417,98.258L41.176,98.258C43.51,98.258 45.37,96.341 45.37,94.006L45.37,73.03L53.688,73.03C66.642,73.03 77.431,68.367 77.431,54.895C77.431,42.124 68.364,37.198 54.382,37.198" style="fill:rgb(255,255,255);fill-rule:nonzero;"></path>
  </g>
</svg>