<svg xmlns="http://www.w3.org/2000/svg" viewBox="0 0 261.65 67.3"><defs><style>.cls-1{fill:#101010;}.cls-2{fill:#4d5ced;}</style></defs><g id="图层_2" data-name="图层 2"><g id="图层_1-2" data-name="图层 1"><polygon class="cls-1" points="163.42 11.43 163.42 8.72 156.88 8.72 156.88 11.43 146.55 11.43 146.55 13.3 173.75 13.3 173.75 11.43 163.42 11.43"/><rect class="cls-1" x="148.1" y="16.15" width="24.1" height="1.87"/><rect class="cls-1" x="148.1" y="20.87" width="24.1" height="1.87"/><path class="cls-1" d="M148.1,26.18V38.59h24.08V26.18Zm17.56,10.55h-11V28h11Z"/><path class="cls-1" d="M146.68,8.73h-6.53v1.82A6.45,6.45,0,0,1,133.7,17h0v1.85h2.84a8.49,8.49,0,0,0,.88-.05V38.57H144V17.77h-2.87A10.1,10.1,0,0,0,146.68,8.73Z"/><rect class="cls-1" x="246.16" y="10.72" width="6.53" height="22.43"/><path class="cls-1" d="M254.56,8.73V34.24a2.48,2.48,0,0,1-2.48,2.48v1.87h5.28a3.75,3.75,0,0,0,3.74-3.74h0V8.73Z"/><path class="cls-1" d="M229.1,22h6.63v7a2.3,2.3,0,0,1-2.29,2.3h0v1.86a8.82,8.82,0,0,0,8.82-8.82V20.18H222.57V34.76a3.73,3.73,0,0,0,3.73,3.73h17V36.62H229.1Z"/><path class="cls-1" d="M235.76,8.73h-6.54v.86a8.13,8.13,0,0,1-8.13,8.15h0v1.87h3.8a10.84,10.84,0,0,0,8.75-4.44L237.45,19H244l-8.38-8.27A10.32,10.32,0,0,0,235.76,8.73Z"/><polygon class="cls-1" points="109.48 19.65 114 13.4 110.19 13.4 110.19 11.15 122.87 11.15 122.87 13.4 119.12 13.4 123.64 19.65 130.13 19.65 126.69 14.89 129.41 14.89 129.41 11.15 129.41 9.29 122.87 9.29 110.19 9.29 103.65 9.29 103.65 11.15 103.65 14.89 106.43 14.89 102.99 19.65 109.48 19.65"/><polygon class="cls-1" points="101.91 22.46 97.39 16.2 90.9 16.2 95.42 22.46 101.91 22.46"/><polygon class="cls-1" points="101.91 15.03 97.39 8.77 90.9 8.77 95.42 15.03 101.91 15.03"/><polygon class="cls-1" points="90 37.54 96.49 37.54 102 24.49 95.51 24.49 90 37.54"/><path class="cls-1" d="M127.84,33.41V23.76h2.29V21.89H119.8V18h-6.53v3.88H103v1.87h2.3V33.4A2.29,2.29,0,0,1,103,35.7h0v1.87a8.84,8.84,0,0,0,8.83-8.83h0v-5h1.49V38.59h6.53V23.76h1.5v5a8.84,8.84,0,0,0,8.82,8.83h0V35.7a2.3,2.3,0,0,1-2.31-2.27Z"/><polygon class="cls-1" points="207.71 17.87 202.89 9.81 196.4 9.81 201.22 17.87 207.71 17.87"/><polygon class="cls-1" points="206.98 26.98 202.15 18.91 195.67 18.91 200.49 26.98 206.98 26.98"/><path class="cls-1" d="M189.6,11.85h1.94a3.14,3.14,0,0,0,3.14-3.14h-6.53A1.27,1.27,0,0,1,187,10h-9v1.86h5.1v3.77h-5.69V17.5H179V35.16a1.54,1.54,0,0,1-1.53,1.55h0v1.87h0a4.35,4.35,0,0,0,4.35-4.35h0V17.48h1.32v21.1h6.52V17.48h1.2V37.66h2.79V17.48h1.52V15.62h-5.51Z"/><polygon class="cls-1" points="217.58 29.02 214.55 29.02 214.55 8.7 208.01 8.7 208.01 29.02 196.2 29.02 196.2 30.88 208.01 30.88 208.01 38.59 214.55 38.59 214.55 30.88 217.58 30.88 217.58 29.02"/><path class="cls-2" d="M67.82,33.63A33.89,33.89,0,0,0,38.06,0V34.16a19.47,19.47,0,0,1,15.3,19H45a11.11,11.11,0,0,0-7-10.3V67.29A33.91,33.91,0,0,0,67.82,33.63Z"/><path class="cls-2" d="M29.75,52.63a19.47,19.47,0,0,1-15.29-19h8.33a11.14,11.14,0,0,0,7,10.3V0h0a33.9,33.9,0,0,0,0,67.3h0Z"/><path class="cls-1" d="M94.09,47.83a7.22,7.22,0,0,1,4.53-1.18,7.82,7.82,0,0,1,5,1.35,3.52,3.52,0,0,1,1.47,2.8h-2.42a2.11,2.11,0,0,0-.84-1.7,4.77,4.77,0,0,0-3-.76,5.11,5.11,0,0,0-3.06.68A1.71,1.71,0,0,0,95,50.37a1.32,1.32,0,0,0,.42,1.1,5.81,5.81,0,0,0,1.9.85q2.42.84,5.48,2a4.57,4.57,0,0,1,1.58.84,2.77,2.77,0,0,1,1.16,2.2,3.58,3.58,0,0,1-1.47,2.88q-1.59,1.28-5.17,1.27a8.37,8.37,0,0,1-5.38-1.53,3.85,3.85,0,0,1-1.37-3.21h2.42a2.64,2.64,0,0,0,.85,2.2,5.66,5.66,0,0,0,3.58.93,5.14,5.14,0,0,0,3.27-.85,1.85,1.85,0,0,0,.85-1.35,1.55,1.55,0,0,0-.64-1.27,6.43,6.43,0,0,0-1.68-.85c-.71-.28-1.62-.62-2.75-1l-3-1.1a4.24,4.24,0,0,1-1.48-.76,2.49,2.49,0,0,1-1-2A3.52,3.52,0,0,1,94.09,47.83Z"/><path class="cls-1" d="M107.3,46.82h2.53l4.38,5.59a1,1,0,0,0,1.58,0l4.38-5.59h2.53l-6.43,8v6.43h-2.43V54.86Z"/><path class="cls-1" d="M125.16,46.82h2.63l8.07,10.93a.21.21,0,0,0,.37-.13V46.82h2.43V61.29H136L128,50.36a.21.21,0,0,0-.37.12V61.29h-2.42Z"/><path class="cls-1" d="M169.62,54.69a4.17,4.17,0,0,0,2.11-.76,4.08,4.08,0,0,0,0-6.1,5.39,5.39,0,0,0-3.48-1.1h-8.86v1.61h8.33a3.13,3.13,0,0,1,2,.68,2.59,2.59,0,0,1,.1,3.72,2.74,2.74,0,0,1-1.79.59h-8.45a.2.2,0,0,0-.2.2V61.2h2.43V54.94h5.48l3.8,6.26h2.63Z"/><path class="cls-1" d="M222.25,54.69a4.17,4.17,0,0,0,2.11-.76,4.08,4.08,0,0,0,0-6.1,5.39,5.39,0,0,0-3.48-1.1H212v1.61h8.33a3.13,3.13,0,0,1,2,.68,2.59,2.59,0,0,1,.1,3.72,2.74,2.74,0,0,1-1.79.59h-8.45a.2.2,0,0,0-.2.21V61.2h2.43V54.94h5.48l3.8,6.26h2.63Z"/><path class="cls-1" d="M194.37,46.73H212v1.61l-9.21.09V61.29h-2.43V48.43l-6-.09Z"/><path class="cls-1" d="M248.15,46.82h2.63l8.08,10.93a.2.2,0,0,0,.36-.12V46.82h2.43V61.29H259l-8.07-10.93a.2.2,0,0,0-.37.12V61.29h-2.42Z"/><path class="cls-1" d="M142.28,46.82h2.42V53a.21.21,0,0,0,.33.16l7.9-6.34H156l-7.18,5.75,7.28,8.72h-2.85l-6.11-7.36-2.36,1.88a.24.24,0,0,0-.07.16v5.32h-2.42Z"/><path class="cls-1" d="M237.93,53.82l0,0,1.37,2.85a.33.33,0,0,1-.14.44.34.34,0,0,1-.37,0L236.44,55s0,0-.05,0a1,1,0,0,1,1.32-1.45,1.19,1.19,0,0,1,.23.31Z"/><path class="cls-1" d="M241.81,60.12a7.79,7.79,0,0,0,1-1,7.53,7.53,0,0,0-1-10.57,7.51,7.51,0,0,0-12.23,6.54,7.52,7.52,0,0,0,2.76,5.1l1.35-1.75a4.58,4.58,0,0,1-.73-.73A5.3,5.3,0,0,1,241.15,51a5.31,5.31,0,0,1-.74,7.46Z"/><path class="cls-1" d="M184,53.82a.05.05,0,0,0,0,0l-1.38,2.85a.33.33,0,0,0,.15.44.32.32,0,0,0,.36,0l2.38-2.1s0,0,0,0A1,1,0,1,0,184,53.82Z"/><path class="cls-1" d="M180.11,60.12a8.35,8.35,0,0,1-1-1,7.52,7.52,0,0,1,1-10.57,7.51,7.51,0,1,1,9.48,11.64l-1.35-1.75a5.59,5.59,0,0,0,.73-.73,5.3,5.3,0,1,0-7.45.74Z"/></g></g></svg>